<svg xmlns="http://www.w3.org/2000/svg" xmlns:xlink="http://www.w3.org/1999/xlink" width="40" zoomAndPan="magnify" viewBox="0 0 30 30.000001" height="40" preserveAspectRatio="xMidYMid meet" version="1.0"><defs><clipPath id="808e907e52"><path d="M 1.71875 1.878906 L 28.570312 1.878906 L 28.570312 27 L 1.71875 27 Z M 1.71875 1.878906 " clip-rule="nonzero"/></clipPath></defs><path fill="#4a79cc" d="M 12.789062 27.875 C 5.492188 26.578125 0.628906 19.605469 1.929688 12.304688 C 3.230469 5.007812 10.199219 0.144531 17.5 1.445312 C 24.796875 2.746094 29.660156 9.714844 28.359375 17.015625 C 27.058594 24.316406 20.089844 29.175781 12.789062 27.875 " fill-opacity="1" fill-rule="nonzero"/><g clip-path="url(#808e907e52)"><path fill="#5b93d6" d="M 26.285156 21.054688 C 25.007812 20.730469 23.757812 20.3125 22.523438 19.855469 C 19.875 18.875 17.261719 17.746094 14.539062 16.980469 C 14.128906 16.867188 13.710938 16.757812 13.292969 16.65625 C 14.097656 16.515625 14.898438 16.371094 15.703125 16.351562 C 15.933594 16.34375 16.167969 16.351562 16.398438 16.367188 C 16.507812 16.375 16.617188 16.386719 16.726562 16.394531 C 16.730469 16.398438 16.734375 16.398438 16.742188 16.398438 C 16.757812 16.398438 16.777344 16.402344 16.792969 16.40625 C 16.851562 16.414062 16.910156 16.421875 16.96875 16.433594 C 17.421875 16.507812 17.871094 16.617188 18.3125 16.757812 C 18.53125 16.828125 18.746094 16.90625 18.957031 16.988281 C 18.976562 16.996094 19.054688 17.027344 19.070312 17.03125 C 19.113281 17.050781 19.15625 17.066406 19.199219 17.085938 C 19.308594 17.132812 19.421875 17.179688 19.53125 17.230469 C 19.960938 17.433594 20.382812 17.652344 20.800781 17.882812 C 21.664062 18.359375 22.503906 18.878906 23.351562 19.386719 C 24.453125 20.046875 25.578125 20.683594 26.761719 21.167969 C 26.601562 21.132812 26.445312 21.09375 26.285156 21.054688 Z M 27.164062 19.84375 C 26.269531 19.472656 25.417969 19.015625 24.578125 18.535156 C 22.84375 17.546875 21.15625 16.484375 19.285156 15.765625 C 18.351562 15.40625 17.378906 15.171875 16.378906 15.097656 C 15.792969 15.054688 15.210938 15.082031 14.628906 15.15625 C 14.226562 15.207031 13.828125 15.269531 13.429688 15.335938 C 13.273438 15.359375 13.117188 15.386719 12.960938 15.414062 C 12.878906 15.425781 12.792969 15.441406 12.710938 15.453125 C 12.703125 15.453125 12.699219 15.457031 12.695312 15.457031 C 12.660156 15.460938 12.621094 15.46875 12.582031 15.472656 C 11.460938 15.632812 10.335938 15.722656 9.199219 15.703125 C 8.082031 15.683594 6.960938 15.578125 5.859375 15.394531 C 4.449219 15.15625 3.0625 14.777344 1.726562 14.257812 C 1.714844 14.578125 1.71875 14.890625 1.730469 15.207031 C 2.75 15.65625 3.792969 16.039062 4.871094 16.316406 C 6.828125 16.824219 8.847656 17.03125 10.863281 16.9375 C 11.210938 17.019531 11.558594 17.09375 11.90625 17.179688 C 12.609375 17.355469 13.308594 17.539062 13.996094 17.761719 C 15.296875 18.179688 16.566406 18.667969 17.828125 19.183594 C 19.105469 19.710938 20.421875 20.292969 21.730469 20.804688 C 22.980469 21.292969 24.246094 21.746094 25.535156 22.109375 C 25.757812 22.167969 25.976562 22.226562 26.199219 22.285156 C 26.695312 21.5625 27.125 20.792969 27.476562 19.972656 C 27.371094 19.929688 27.265625 19.886719 27.164062 19.84375 Z M 13.605469 24.839844 C 15.871094 25.394531 18.097656 26.441406 20.382812 26.988281 C 20.414062 26.996094 20.445312 26.992188 20.476562 26.980469 C 20.632812 26.910156 20.792969 26.839844 20.949219 26.761719 C 21.0625 26.707031 21.054688 26.542969 20.933594 26.5 C 19.886719 26.140625 18.859375 25.707031 17.84375 25.34375 C 16.042969 24.703125 14.195312 24.15625 12.3125 23.804688 C 10.753906 23.515625 9.042969 23.320312 7.34375 23.355469 C 7.179688 23.355469 7.144531 23.117188 7.300781 23.074219 C 7.78125 22.941406 8.269531 22.839844 8.765625 22.773438 C 10.574219 22.523438 12.347656 22.75 14.121094 23.027344 C 14.125 23.027344 14.128906 23.027344 14.132812 23.027344 C 16.875 23.679688 19.808594 24.550781 22.792969 25.617188 C 22.835938 25.632812 22.886719 25.628906 22.921875 25.601562 C 23.128906 25.457031 23.328125 25.304688 23.523438 25.144531 C 23.605469 25.078125 23.589844 24.949219 23.492188 24.90625 C 17.136719 22.0625 9.496094 18.628906 2.945312 19.824219 C 2.855469 19.839844 2.804688 19.9375 2.839844 20.019531 C 3.066406 20.542969 3.328125 21.050781 3.621094 21.539062 C 3.644531 21.582031 3.691406 21.609375 3.742188 21.609375 C 4.875 21.59375 6.164062 21.667969 7.574219 21.832031 C 7.738281 21.851562 7.746094 22.085938 7.585938 22.113281 C 7.582031 22.117188 7.578125 22.117188 7.574219 22.117188 C 6.800781 22.261719 5.78125 22.53125 4.8125 22.941406 C 4.726562 22.980469 4.699219 23.089844 4.757812 23.164062 C 5.09375 23.570312 5.453125 23.960938 5.832031 24.328125 C 5.863281 24.359375 5.90625 24.371094 5.949219 24.367188 C 8.472656 24.058594 10.96875 24.199219 13.605469 24.839844 Z M 28.566406 15.011719 C 26.636719 14.53125 24.398438 12.855469 22.09375 11.675781 C 22.089844 11.675781 22.085938 11.671875 22.082031 11.671875 C 16.734375 9.472656 10.902344 8.5 7.761719 9.574219 C 6.628906 9.964844 4.585938 10.328125 2.585938 9.910156 C 2.832031 9.257812 3.128906 8.628906 3.46875 8.035156 C 4.558594 8.378906 5.832031 8.316406 7.804688 7.851562 C 10.765625 7.15625 14.96875 8.6875 14.132812 7.808594 C 12.632812 6.242188 7.582031 6.84375 4.726562 6.191406 C 5.101562 5.730469 5.503906 5.296875 5.933594 4.894531 C 10.386719 4.820312 16.996094 6.664062 22.332031 9.359375 C 24.523438 10.464844 26.582031 12.222656 28.484375 13.148438 C 28.554688 13.761719 28.582031 14.382812 28.566406 15.011719 Z M 10.140625 2.207031 C 10.417969 2.09375 10.695312 1.992188 10.980469 1.898438 C 11.023438 1.886719 11.070312 1.894531 11.105469 1.917969 C 15.105469 4.828125 20.789062 6.59375 25.703125 6.375 C 25.894531 6.617188 26.078125 6.871094 26.25 7.125 L 26.25 7.128906 C 20.632812 7.585938 14.675781 6.761719 10.140625 2.207031 " fill-opacity="1" fill-rule="nonzero"/></g><path fill="#2d1e1a" d="M 21.609375 14.207031 C 22.222656 14.207031 22.71875 13.710938 22.71875 13.101562 C 22.71875 12.488281 22.222656 11.992188 21.609375 11.992188 C 21 11.992188 20.503906 12.488281 20.503906 13.101562 C 20.503906 13.710938 21 14.207031 21.609375 14.207031 Z M 10.359375 10.886719 C 10.359375 10.277344 10.855469 9.78125 11.464844 9.78125 C 12.078125 9.78125 12.570312 10.277344 12.570312 10.886719 C 12.570312 11.5 12.078125 11.992188 11.464844 11.992188 C 10.855469 11.992188 10.359375 11.5 10.359375 10.886719 " fill-opacity="1" fill-rule="nonzero"/><path fill="#f47dae" d="M 14.375 13.242188 L 18.351562 14.320312 C 18.40625 14.332031 18.429688 14.40625 18.402344 14.472656 C 18.207031 15.023438 17.324219 17.140625 15.691406 16.695312 C 14.511719 16.375 14.042969 14.671875 14.292969 13.316406 C 14.304688 13.265625 14.339844 13.234375 14.375 13.242188 " fill-opacity="1" fill-rule="nonzero"/><path fill="#aeaee5" d="M 24.585938 15.042969 C 23.636719 14.71875 22.667969 15.039062 22.421875 15.757812 C 22.175781 16.480469 22.742188 17.328125 23.695312 17.652344 C 24.644531 17.980469 25.613281 17.660156 25.859375 16.9375 C 26.105469 16.21875 25.539062 15.367188 24.585938 15.042969 Z M 9.050781 12.558594 C 8.945312 13.3125 8.054688 13.8125 7.058594 13.675781 C 6.066406 13.539062 5.34375 12.816406 5.449219 12.058594 C 5.554688 11.304688 6.445312 10.804688 7.4375 10.941406 C 8.433594 11.082031 9.152344 11.804688 9.050781 12.558594 " fill-opacity="1" fill-rule="nonzero"/></svg>